HIERARCHY
ROOT root
{
	OFFSET 0.000000 0.000000 0.000000
	CHANNELS 6 Xposition Yposition Zposition Zrotation Yrotation Xrotation
	JOINT lhip
	{
		OFFSET 0.058581 -0.082280 -0.017664
		CHANNELS 3 Zrotation Yrotation Xrotation
		JOINT lknee
		{
			OFFSET 0.043451 -0.386469 0.008037
			CHANNELS 3 Zrotation Yrotation Xrotation
			JOINT lankle
			{
				OFFSET -0.014790 -0.426874 -0.037428
				CHANNELS 3 Zrotation Yrotation Xrotation
				JOINT ltoe
				{
					OFFSET 0.041054 -0.060286 0.122042
					CHANNELS 3 Zrotation Yrotation Xrotation
					End Site
					{
						OFFSET 0.000000 0.000000 0.000000
					}
				}
			}
		}
	}
	JOINT rhip
	{
		OFFSET -0.060310 -0.090513 -0.013543
		CHANNELS 3 Zrotation Yrotation Xrotation
		JOINT rknee
		{
			OFFSET -0.043257 -0.383688 -0.004843
			CHANNELS 3 Zrotation Yrotation Xrotation
			JOINT rankle
			{
				OFFSET 0.019056 -0.420046 -0.034562
				CHANNELS 3 Zrotation Yrotation Xrotation
				JOINT rtoe
				{
					OFFSET -0.034840 -0.062106 0.130323
					CHANNELS 3 Zrotation Yrotation Xrotation
					End Site
					{
						OFFSET 0.000000 0.000000 0.000000
					}
				}
			}
		}
	}
	JOINT lowerback
	{
		OFFSET 0.004439 0.124404 -0.038385
		CHANNELS 3 Zrotation Yrotation Xrotation
		JOINT upperback
		{
			OFFSET 0.004488 0.137956 0.026820
			CHANNELS 3 Zrotation Yrotation Xrotation
			JOINT chest
			{
				OFFSET -0.002265 0.056032 0.002855
				CHANNELS 3 Zrotation Yrotation Xrotation
				JOINT lowerneck
				{
					OFFSET -0.013390 0.211636 -0.033468
					CHANNELS 3 Zrotation Yrotation Xrotation
					JOINT upperneck
					{
						OFFSET 0.010113 0.088937 0.050410
						CHANNELS 3 Zrotation Yrotation Xrotation
						End Site
						{
							OFFSET 0.000000 0.000000 0.000000
						}
					}
				}
				JOINT lclavicle
				{
					OFFSET 0.071702 0.114000 -0.018898
					CHANNELS 3 Zrotation Yrotation Xrotation
					JOINT lshoulder
					{
						OFFSET 0.122921 0.045205 -0.019046
						CHANNELS 3 Zrotation Yrotation Xrotation
						JOINT lelbow
						{
							OFFSET 0.255332 -0.015649 -0.022946
							CHANNELS 3 Zrotation Yrotation Xrotation
							JOINT lwrist
							{
								OFFSET 0.265709 0.012698 -0.007375
								CHANNELS 3 Zrotation Yrotation Xrotation
								End Site
								{
									OFFSET 0.000000 0.000000 0.000000
								}
							}
						}
					}
				}
				JOINT rclavicle
				{
					OFFSET -0.082954 0.112472 -0.023707
					CHANNELS 3 Zrotation Yrotation Xrotation
					JOINT rshoulder
					{
						OFFSET -0.113228 0.046853 -0.008472
						CHANNELS 3 Zrotation Yrotation Xrotation
						JOINT relbow
						{
							OFFSET -0.260127 -0.014369 -0.031269
							CHANNELS 3 Zrotation Yrotation Xrotation
							JOINT rwrist
							{
								OFFSET -0.269108 0.006794 -0.006027
								CHANNELS 3 Zrotation Yrotation Xrotation
								End Site
								{
									OFFSET 0.000000 0.000000 0.000000
								}
							}
						}
					}
				}
			}
		}
	}
}
MOTION
Frames: 9
Frame Time: 0.033333
-1.959301 0.317776 1.029457 87.834367 0.692836 91.112657 3.879829 2.053780 6.126481 -3.550349 -5.033341 -1.057517 1.575330 8.736822 -8.470235 0.000000 -0.000000 0.000000 -5.061127 -3.508400 -1.266612 1.387995 -1.038606 9.750938 5.752417 -7.026780 -7.813954 0.000000 -0.000000 0.000000 -1.853285 1.177887 1.907290 0.405817 -0.351342 -2.119987 1.324941 -0.739208 1.438761 5.618311 8.321084 -11.747882 1.149254 2.734707 6.561881 -26.692198 5.566110 0.563306 -56.736480 -7.462431 8.221201 6.725257 -24.942328 6.326681 -1.753991 -4.753212 -7.332845 28.147441 0.448587 2.488691 55.776588 7.040667 15.923154 -8.176242 18.249343 0.263015 6.389924 0.921276 -2.155013 
-1.959554 0.317744 1.029477 87.689093 0.764673 91.105672 3.929092 2.208448 6.108511 -3.506687 -5.015328 -0.991697 1.572783 8.721794 -8.493191 0.000000 -0.000000 0.000000 -4.982093 -3.438656 -1.253478 1.402512 -0.863589 9.680336 5.761531 -7.049466 -7.921466 0.000000 -0.000000 0.000000 -1.800465 1.112121 1.867705 0.446096 -0.364182 -2.054549 1.346177 -0.663177 1.471558 5.584080 8.167405 -11.694292 1.058074 2.715170 6.458544 -26.510144 5.505415 0.558614 -56.924328 -7.423562 8.298727 6.657062 -25.011030 6.686405 -1.763792 -4.457802 -7.504031 28.091038 0.535703 2.493969 55.682471 7.141288 15.935556 -8.127043 18.669554 0.359940 6.220161 0.795728 -2.279512 
-1.960425 0.317775 1.029435 87.473610 0.774546 91.132847 3.900768 2.211709 6.065944 -3.501751 -4.996720 -1.048668 1.589906 8.867774 -8.457690 0.000000 -0.000000 0.000000 -4.974532 -3.290070 -1.436943 1.410331 -0.845038 9.767598 5.768273 -7.029958 -7.887802 0.000000 -0.000000 0.000000 -1.844831 0.992081 1.958054 0.454108 -0.255907 -2.154154 1.408314 -0.622207 1.445840 5.461269 8.273827 -11.538377 1.091443 2.802696 6.575815 -26.376109 5.475784 0.537102 -57.064040 -7.386754 8.339409 6.649618 -24.873076 6.637206 -1.648158 -4.407950 -7.518324 27.961936 0.590672 2.513996 55.756084 7.260704 15.993526 -8.289285 18.926461 0.267737 6.110831 0.875988 -2.468925 
-1.961337 0.318128 1.029629 87.070805 0.793518 91.016965 3.824260 2.236926 6.269579 -3.438903 -4.896681 -1.204911 1.664851 8.975297 -8.376823 0.000000 -0.000000 0.000000 -5.038784 -3.040434 -1.522456 1.471463 -0.843129 9.827801 5.913327 -6.945122 -7.731214 0.000000 -0.000000 0.000000 -1.773963 0.842770 2.295581 0.362692 -0.026272 -2.312405 1.372416 -0.487670 1.427949 5.260334 8.755519 -11.509999 1.169510 3.034088 6.968031 -26.313839 5.527780 0.369853 -57.002400 -7.424498 8.366493 6.528261 -24.652821 6.611180 -1.559293 -4.650172 -7.251059 28.131934 0.577741 2.364899 55.499053 7.478729 16.096129 -8.170777 18.878759 0.194140 6.094025 1.080896 -2.309878 
-1.961259 0.318195 1.029687 86.992647 0.838917 91.001321 3.855849 2.299250 6.248157 -3.453062 -4.830573 -1.149188 1.721130 9.068573 -8.496144 0.000000 -0.000000 0.000000 -4.972858 -3.066839 -1.522857 1.464213 -0.701865 9.880448 5.785726 -6.905807 -7.903386 0.000000 -0.000000 0.000000 -1.875675 1.127486 2.090664 0.521479 0.167594 -2.182662 1.525163 -0.813397 1.454799 5.134477 8.578990 -11.207754 1.065965 3.058837 6.897456 -26.530056 5.238206 0.640031 -57.002159 -7.457772 8.308422 6.715056 -24.564264 6.338216 -1.708412 -4.392428 -7.240055 28.011322 0.649997 2.469421 55.360734 7.430326 15.956053 -8.314491 19.050603 0.072938 6.115701 0.961995 -2.329854 
-1.961693 0.318362 1.029746 86.786650 0.805373 90.983494 3.815904 2.410102 6.314266 -3.476618 -4.793728 -1.260394 1.680622 9.087801 -8.476336 0.000000 -0.000000 0.000000 -5.058783 -3.040555 -1.599439 1.493211 -0.669222 9.912246 5.850193 -6.780504 -7.867385 0.000000 -0.000000 0.000000 -1.680465 0.877441 2.229342 0.364982 0.041787 -2.272594 1.304821 -0.500416 1.434756 5.213031 8.699316 -11.330349 0.938846 3.074553 7.012851 -26.424857 5.487987 0.411584 -56.838208 -7.320718 8.307641 6.635068 -24.611641 6.454393 -1.523867 -4.595641 -7.166325 28.148241 0.674937 2.438942 55.426285 7.537121 16.064500 -8.346243 18.923405 0.079310 5.865741 1.077705 -2.271482 
-1.961957 0.318515 1.029842 86.748460 0.836759 90.939697 3.847284 2.476683 6.281541 -3.499759 -4.864366 -1.113184 1.745572 9.049079 -8.577509 0.000000 -0.000000 0.000000 -5.038995 -3.107196 -1.619619 1.484514 -0.633379 9.966993 5.759244 -6.790605 -7.812012 0.000000 -0.000000 0.000000 -1.718288 0.976447 2.261518 0.433069 0.134892 -2.307325 1.379455 -0.632317 1.469210 5.047700 8.856438 -11.077611 0.827324 3.364766 7.194141 -26.510203 5.463948 0.451511 -56.838174 -7.356594 8.270963 6.685268 -24.359527 6.529451 -1.468432 -4.576941 -7.059729 28.158285 0.583948 2.408922 55.232382 7.658139 15.989452 -8.208915 18.816748 0.100735 5.870052 1.075797 -2.203631 
-1.962062 0.318607 1.029845 86.726563 0.821205 90.979382 3.865341 2.577995 6.243233 -3.542886 -4.856844 -1.134535 1.666634 8.937934 -8.572260 0.000000 -0.000000 0.000000 -5.059801 -3.127485 -1.707906 1.489475 -0.536867 9.994682 5.886671 -6.750973 -7.837421 0.000000 -0.000000 0.000000 -1.645778 0.852019 2.194636 0.403615 0.054816 -2.308866 1.275482 -0.539104 1.496223 5.053253 8.971640 -11.076092 0.715995 3.405406 7.252808 -26.547817 5.690795 0.283808 -56.709654 -7.297694 8.231932 6.623041 -24.298302 6.545390 -1.409344 -4.508048 -6.972869 28.312172 0.515627 2.438201 55.134132 7.715267 16.040162 -8.241146 18.753871 -0.022171 5.696162 1.052922 -2.128654 
-1.962334 0.318852 1.029925 86.775048 0.859517 91.019733 3.859864 2.448127 6.269205 -3.525546 -4.928819 -1.278646 1.680096 9.117401 -8.508675 0.000000 -0.000000 0.000000 -5.062501 -3.083960 -1.672258 1.562678 -0.510760 9.842826 5.796093 -6.912669 -7.759411 0.000000 -0.000000 0.000000 -1.563402 0.789864 2.162600 0.355027 0.075279 -2.314068 1.241206 -0.512474 1.534887 4.977310 9.153046 -11.239216 0.793862 3.469495 7.388109 -26.632954 5.779754 0.164568 -56.591657 -7.268343 8.264026 6.600417 -24.375540 6.589089 -1.451804 -4.509756 -6.929302 28.463706 0.434605 2.358438 54.953394 7.589509 16.083868 -8.180966 18.766609 -0.028879 5.748549 0.968304 -2.047204 
